<svg width="488" height="168" viewBox="0 0 488 168" fill="none" xmlns="http://www.w3.org/2000/svg">
<path d="M24.96 123.592C26.624 125.512 28.416 126.856 30.336 127.624C32.2987 128.392 34.3253 128.776 36.416 128.776C38.592 128.776 40.5547 128.392 42.304 127.624C44.096 126.813 45.632 125.555 46.912 123.848C48.192 122.099 49.1733 119.837 49.856 117.064C50.5387 114.291 50.88 110.941 50.88 107.016C50.88 103.517 50.6027 100.552 50.048 98.12C49.4933 95.6453 48.6613 93.6187 47.552 92.04C46.4853 90.4613 45.1627 89.3093 43.584 88.584C42.0053 87.8587 40.1707 87.496 38.08 87.496C35.3067 87.496 32.896 88.1147 30.848 89.352C28.8427 90.5467 26.88 92.3173 24.96 94.664V123.592ZM24.96 82.632C27.5627 80.0293 30.4427 77.9387 33.6 76.36C36.7573 74.7813 40.2987 73.992 44.224 73.992C48.0213 73.992 51.4347 74.76 54.464 76.296C57.536 77.7893 60.1387 79.944 62.272 82.76C64.448 85.576 66.112 88.9893 67.264 93C68.4587 96.968 69.056 101.427 69.056 106.376C69.056 111.709 68.3733 116.573 67.008 120.968C65.6853 125.32 63.7867 129.053 61.312 132.168C58.8373 135.283 55.872 137.693 52.416 139.4C49.0027 141.107 45.184 141.96 40.96 141.96C38.912 141.96 37.0773 141.747 35.456 141.32C33.8347 140.936 32.3413 140.381 30.976 139.656C29.6107 138.931 28.352 138.077 27.2 137.096C26.048 136.072 24.96 134.941 23.936 133.704L23.232 137.672C22.9333 138.909 22.4427 139.784 21.76 140.296C21.0773 140.765 20.16 141 19.008 141H7.296V45.576H24.96V82.632ZM114.917 113.416C110.608 113.629 107.024 114.013 104.165 114.568C101.306 115.08 99.0237 115.763 97.317 116.616C95.653 117.469 94.4583 118.451 93.733 119.56C93.0503 120.627 92.709 121.8 92.709 123.08C92.709 125.64 93.413 127.453 94.821 128.52C96.2717 129.587 98.277 130.12 100.837 130.12C103.781 130.12 106.32 129.608 108.453 128.584C110.629 127.517 112.784 125.875 114.917 123.656V113.416ZM78.949 84.168C82.8317 80.6693 87.1197 78.0667 91.813 76.36C96.5063 74.6107 101.584 73.736 107.045 73.736C110.97 73.736 114.469 74.376 117.541 75.656C120.656 76.936 123.28 78.728 125.413 81.032C127.589 83.2933 129.253 86.0027 130.405 89.16C131.557 92.3173 132.133 95.7733 132.133 99.528V141H124.069C122.405 141 121.125 140.765 120.229 140.296C119.376 139.827 118.672 138.845 118.117 137.352L116.709 133.128C115.045 134.579 113.424 135.859 111.845 136.968C110.309 138.077 108.709 139.016 107.045 139.784C105.381 140.509 103.589 141.064 101.669 141.448C99.7917 141.832 97.6797 142.024 95.333 142.024C92.4317 142.024 89.7863 141.64 87.397 140.872C85.0077 140.104 82.9383 138.973 81.189 137.48C79.4823 135.944 78.1597 134.045 77.221 131.784C76.2823 129.523 75.813 126.92 75.813 123.976C75.813 121.544 76.4317 119.112 77.669 116.68C78.9063 114.248 81.0183 112.051 84.005 110.088C87.0343 108.083 91.045 106.44 96.037 105.16C101.072 103.837 107.365 103.091 114.917 102.92V99.528C114.917 95.3893 114.042 92.36 112.293 90.44C110.544 88.4773 108.026 87.496 104.741 87.496C102.309 87.496 100.282 87.7947 98.661 88.392C97.0397 88.9467 95.6103 89.5653 94.373 90.248C93.1783 90.888 92.0477 91.5067 90.981 92.104C89.9143 92.6587 88.677 92.936 87.269 92.936C86.0317 92.936 84.9863 92.6373 84.133 92.04C83.3223 91.4 82.6397 90.6533 82.085 89.8L78.949 84.168Z" fill="white"/>
<path d="M194.113 82.184C194.113 83.4213 193.9 84.6373 193.473 85.832C193.046 86.984 192.492 87.9227 191.809 88.648L162.177 127.688H193.281V141H141.761V133.704C141.761 132.979 141.953 132.061 142.337 130.952C142.764 129.843 143.34 128.797 144.065 127.816L173.953 88.328H143.617V75.016H194.113V82.184ZM223.347 75.016V141H205.683V75.016H223.347ZM225.459 56.264C225.459 57.7573 225.16 59.144 224.563 60.424C223.966 61.704 223.155 62.8347 222.131 63.816C221.15 64.7973 219.976 65.5653 218.611 66.12C217.288 66.6747 215.859 66.952 214.323 66.952C212.872 66.952 211.486 66.6747 210.163 66.12C208.883 65.5653 207.752 64.7973 206.771 63.816C205.79 62.8347 205 61.704 204.403 60.424C203.848 59.144 203.571 57.7573 203.571 56.264C203.571 54.7707 203.848 53.384 204.403 52.104C205 50.7813 205.79 49.6293 206.771 48.648C207.752 47.6667 208.883 46.8987 210.163 46.344C211.486 45.7893 212.872 45.512 214.323 45.512C215.859 45.512 217.288 45.7893 218.611 46.344C219.976 46.8987 221.15 47.6667 222.131 48.648C223.155 49.6293 223.966 50.7813 224.563 52.104C225.16 53.384 225.459 54.7707 225.459 56.264ZM254.805 82.696C256.128 81.416 257.493 80.2427 258.901 79.176C260.352 78.1093 261.866 77.192 263.445 76.424C265.066 75.656 266.794 75.0587 268.629 74.632C270.506 74.2053 272.533 73.992 274.709 73.992C278.293 73.992 281.472 74.6107 284.245 75.848C287.018 77.0853 289.344 78.8133 291.221 81.032C293.141 83.2507 294.57 85.896 295.509 88.968C296.49 92.04 296.981 95.4107 296.981 99.08V141H279.381V99.08C279.381 95.4107 278.528 92.5733 276.821 90.568C275.114 88.52 272.597 87.496 269.269 87.496C266.794 87.496 264.469 88.0293 262.293 89.096C260.117 90.1627 258.048 91.656 256.085 93.576V141H238.421V75.016H249.301C251.52 75.016 252.992 76.04 253.717 78.088L254.805 82.696ZM335.622 105.544C339.249 105.544 341.915 104.627 343.622 102.792C345.371 100.957 346.246 98.5893 346.246 95.688C346.246 92.6587 345.371 90.2907 343.622 88.584C341.915 86.8347 339.249 85.96 335.622 85.96C331.995 85.96 329.329 86.8347 327.622 88.584C325.915 90.2907 325.062 92.6587 325.062 95.688C325.062 98.5467 325.915 100.915 327.622 102.792C329.371 104.627 332.038 105.544 335.622 105.544ZM352.326 143.688C352.326 142.536 351.963 141.597 351.238 140.872C350.513 140.147 349.531 139.571 348.294 139.144C347.099 138.717 345.67 138.419 344.006 138.248C342.342 138.035 340.571 137.885 338.694 137.8C336.817 137.672 334.875 137.565 332.87 137.48C330.865 137.395 328.902 137.245 326.982 137.032C325.489 137.928 324.251 138.995 323.27 140.232C322.331 141.427 321.862 142.792 321.862 144.328C321.862 145.395 322.097 146.376 322.566 147.272C323.078 148.168 323.91 148.936 325.062 149.576C326.214 150.216 327.729 150.707 329.606 151.048C331.483 151.432 333.83 151.624 336.646 151.624C339.547 151.624 342.001 151.432 344.006 151.048C346.011 150.664 347.633 150.109 348.87 149.384C350.107 148.701 350.982 147.869 351.494 146.888C352.049 145.907 352.326 144.84 352.326 143.688ZM369.862 77.192V83.656C369.862 84.68 369.563 85.4907 368.966 86.088C368.411 86.6853 367.473 87.1333 366.15 87.432L360.774 88.52C361.499 90.6107 361.862 92.8507 361.862 95.24C361.862 98.5253 361.179 101.491 359.814 104.136C358.491 106.739 356.657 108.979 354.31 110.856C351.963 112.691 349.19 114.12 345.99 115.144C342.79 116.125 339.334 116.616 335.622 116.616C333.275 116.616 331.078 116.424 329.03 116.04C327.238 117.149 326.342 118.365 326.342 119.688C326.342 120.925 326.939 121.821 328.134 122.376C329.371 122.931 330.971 123.336 332.934 123.592C334.939 123.805 337.201 123.955 339.718 124.04C342.278 124.083 344.859 124.211 347.462 124.424C350.107 124.637 352.689 125.021 355.206 125.576C357.766 126.088 360.027 126.963 361.99 128.2C363.995 129.395 365.595 130.995 366.79 133C368.027 135.005 368.646 137.587 368.646 140.744C368.646 143.688 367.921 146.547 366.47 149.32C365.019 152.093 362.907 154.568 360.134 156.744C357.403 158.92 354.033 160.669 350.022 161.992C346.011 163.315 341.446 163.976 336.326 163.976C331.249 163.976 326.833 163.485 323.078 162.504C319.366 161.565 316.273 160.285 313.798 158.664C311.366 157.085 309.553 155.251 308.358 153.16C307.163 151.069 306.566 148.893 306.566 146.632C306.566 143.688 307.462 141.192 309.254 139.144C311.046 137.096 313.521 135.453 316.678 134.216C315.014 133.277 313.67 132.061 312.646 130.568C311.665 129.032 311.174 127.048 311.174 124.616C311.174 122.653 311.878 120.584 313.286 118.408C314.737 116.232 316.955 114.419 319.942 112.968C316.571 111.176 313.905 108.787 311.942 105.8C309.979 102.771 308.998 99.2507 308.998 95.24C308.998 91.9547 309.659 88.9893 310.982 86.344C312.347 83.6987 314.225 81.4587 316.614 79.624C319.003 77.7467 321.819 76.3173 325.062 75.336C328.305 74.3547 331.825 73.864 335.622 73.864C341.254 73.864 346.225 74.9733 350.534 77.192H369.862ZM419.652 100.232C419.652 98.3973 419.396 96.648 418.884 94.984C418.415 93.32 417.647 91.848 416.58 90.568C415.513 89.288 414.169 88.2853 412.548 87.56C410.927 86.792 408.985 86.408 406.724 86.408C402.5 86.408 399.193 87.6027 396.804 89.992C394.415 92.3813 392.857 95.7947 392.132 100.232H419.652ZM391.876 110.728C392.431 116.915 394.18 121.437 397.124 124.296C400.111 127.155 403.993 128.584 408.772 128.584C411.204 128.584 413.295 128.307 415.044 127.752C416.836 127.155 418.393 126.515 419.716 125.832C421.081 125.107 422.297 124.467 423.364 123.912C424.473 123.315 425.561 123.016 426.628 123.016C427.993 123.016 429.06 123.528 429.828 124.552L434.948 130.952C433.071 133.128 431.001 134.941 428.74 136.392C426.479 137.8 424.132 138.931 421.7 139.784C419.268 140.595 416.815 141.149 414.34 141.448C411.865 141.789 409.476 141.96 407.172 141.96C402.564 141.96 398.255 141.213 394.244 139.72C390.276 138.184 386.799 135.944 383.812 133C380.868 130.013 378.543 126.323 376.836 121.928C375.129 117.533 374.276 112.435 374.276 106.632C374.276 102.152 375.001 97.928 376.452 93.96C377.945 89.992 380.079 86.536 382.852 83.592C385.625 80.648 388.996 78.3227 392.964 76.616C396.932 74.8667 401.412 73.992 406.404 73.992C410.628 73.992 414.511 74.6747 418.052 76.04C421.636 77.3627 424.708 79.304 427.268 81.864C429.871 84.424 431.876 87.5813 433.284 91.336C434.735 95.048 435.46 99.2933 435.46 104.072C435.46 105.395 435.396 106.483 435.268 107.336C435.14 108.189 434.927 108.872 434.628 109.384C434.329 109.896 433.924 110.259 433.412 110.472C432.9 110.643 432.239 110.728 431.428 110.728H391.876ZM462.997 85.896C465.088 82.1413 467.498 79.176 470.229 77C472.96 74.824 476.16 73.736 479.829 73.736C482.816 73.736 485.248 74.44 487.125 75.848L485.973 88.904C485.76 89.7573 485.418 90.3547 484.949 90.696C484.522 90.9947 483.925 91.144 483.157 91.144C482.474 91.144 481.493 91.0587 480.213 90.888C478.933 90.6747 477.738 90.568 476.629 90.568C475.008 90.568 473.557 90.8027 472.277 91.272C471.04 91.7413 469.93 92.4027 468.949 93.256C467.968 94.1093 467.072 95.1547 466.261 96.392C465.493 97.6293 464.768 99.0373 464.085 100.616V141H446.421V75.016H456.853C458.645 75.016 459.882 75.336 460.565 75.976C461.248 76.616 461.738 77.7253 462.037 79.304L462.997 85.896Z" fill="#4BCAFF"/>
<path d="M260.26 17.8286C234.515 -5.94721 194.474 -5.9385 168.74 17.8286C167.772 18.7223 167.753 20.2356 168.689 21.1627L173.664 26.0914C174.556 26.9765 175.992 26.9953 176.919 26.1465C198.123 6.75101 230.874 6.74665 252.082 26.1465C253.009 26.9953 254.445 26.975 255.337 26.0914L260.313 21.1627C261.247 20.2356 261.228 18.7223 260.26 17.8286ZM214.5 46.4286C209.363 46.4286 205.2 50.5854 205.2 55.7143C205.2 60.8432 209.363 65 214.5 65C219.637 65 223.8 60.8432 223.8 55.7143C223.8 50.5854 219.637 46.4286 214.5 46.4286ZM243.95 34.3006C227.202 19.5116 201.779 19.5276 185.049 34.3006C184.047 35.1856 184.015 36.7221 184.967 37.6594L189.971 42.591C190.843 43.4499 192.247 43.5079 193.175 42.707C205.374 32.1779 223.653 32.2011 235.823 42.707C236.752 43.5079 238.155 43.4513 239.027 42.591L244.032 37.6594C244.985 36.7221 244.952 35.1842 243.95 34.3006V34.3006Z" fill="#4BCAFF"/>
</svg>
